{
  "accessors": [
    {
      "name": "Caixa001_1_0_positions",
      "componentType": 5126,
      "count": 4220,
      "min": [
        -29.164100646972656,
        0.6682000160217285,
        -11.34469985961914
      ],
      "max": [
        -11.03950023651123,
        42.806800842285156,
        16.332199096679688
      ],
      "type": "VEC3",
      "bufferView": 0,
      "byteOffset": 0
    },
    {
      "name": "Caixa001_1_0_normals",
      "componentType": 5126,
      "count": 4220,
      "min": [
        -0.9998039603233337,
        -0.9999920129776001,
        -0.9999997615814209
      ],
      "max": [
        1,
        0.9998309016227722,
        0.9999997615814209
      ],
      "type": "VEC3",
      "bufferView": 1,
      "byteOffset": 0
    },
    {
      "name": "Caixa001_1_0_texcoords",
      "componentType": 5126,
      "count": 4220,
      "min": [
        0,
        0
      ],
      "max": [
        1,
        1
      ],
      "type": "VEC2",
      "bufferView": 2,
      "byteOffset": 0
    },
    {
      "name": "Caixa001_1_0_indices",
      "componentType": 5123,
      "count": 18831,
      "min": [
        0
      ],
      "max": [
        4219
      ],
      "type": "SCALAR",
      "bufferView": 3,
      "byteOffset": 0
    },
    {
      "name": "Caixa001_1_1_positions",
      "componentType": 5126,
      "count": 156,
      "min": [
        -29.585599899291992,
        35.89830017089844,
        1.3849999904632568
      ],
      "max": [
        -24.624500274658203,
        39.14550018310547,
        5.468500137329102
      ],
      "type": "VEC3",
      "bufferView": 0,
      "byteOffset": 50640
    },
    {
      "name": "Caixa001_1_1_normals",
      "componentType": 5126,
      "count": 156,
      "min": [
        -0.9974551200866699,
        -0.553707480430603,
        -0.9988757371902466
      ],
      "max": [
        0.06779733300209045,
        0.9830851554870605,
        0.9988757371902466
      ],
      "type": "VEC3",
      "bufferView": 1,
      "byteOffset": 50640
    },
    {
      "name": "Caixa001_1_1_texcoords",
      "componentType": 5126,
      "count": 156,
      "min": [
        0,
        0.25
      ],
      "max": [
        0.14000000059604645,
        0.47690001130104065
      ],
      "type": "VEC2",
      "bufferView": 2,
      "byteOffset": 33760
    },
    {
      "name": "Caixa001_1_1_indices",
      "componentType": 5123,
      "count": 528,
      "min": [
        0
      ],
      "max": [
        155
      ],
      "type": "SCALAR",
      "bufferView": 3,
      "byteOffset": 37664
    },
    {
      "name": "Text001_1_0_positions",
      "componentType": 5126,
      "count": 1266,
      "min": [
        -23.145099639892578,
        9.190799713134766,
        -11.855299949645996
      ],
      "max": [
        -22.332799911499023,
        10.967000007629395,
        -6.639699935913086
      ],
      "type": "VEC3",
      "bufferView": 0,
      "byteOffset": 52512
    },
    {
      "name": "Text001_1_0_normals",
      "componentType": 5126,
      "count": 1266,
      "min": [
        -0.7726882696151733,
        -1,
        -0.9947080612182617
      ],
      "max": [
        0.7723686695098877,
        0.9999991655349731,
        0.9947102665901184
      ],
      "type": "VEC3",
      "bufferView": 1,
      "byteOffset": 52512
    },
    {
      "name": "Text001_1_0_texcoords",
      "componentType": 5126,
      "count": 1266,
      "min": [
        -6.35860013961792,
        -3.2600998878479004
      ],
      "max": [
        6.362299919128418,
        1.0728000402450562
      ],
      "type": "VEC2",
      "bufferView": 2,
      "byteOffset": 35008
    },
    {
      "name": "Text001_1_0_indices",
      "componentType": 5123,
      "count": 4176,
      "min": [
        0
      ],
      "max": [
        1265
      ],
      "type": "SCALAR",
      "bufferView": 3,
      "byteOffset": 38720
    },
    {
      "name": "Text001_1_1_positions",
      "componentType": 5126,
      "count": 1150,
      "min": [
        -22.98080062866211,
        5.334199905395508,
        -13.150099754333496
      ],
      "max": [
        -16.563100814819336,
        18.369699478149414,
        -5.687300205230713
      ],
      "type": "VEC3",
      "bufferView": 0,
      "byteOffset": 67704
    },
    {
      "name": "Text001_1_1_normals",
      "componentType": 5126,
      "count": 1150,
      "min": [
        -0.9999376535415649,
        -0.9999948143959045,
        -0.9997427463531494
      ],
      "max": [
        0.9999837279319763,
        1,
        0.9996030926704407
      ],
      "type": "VEC3",
      "bufferView": 1,
      "byteOffset": 67704
    },
    {
      "name": "Text001_1_1_texcoords",
      "componentType": 5126,
      "count": 1150,
      "min": [
        -2.4554998874664307,
        -2.8301000595092773
      ],
      "max": [
        5.826399803161621,
        1
      ],
      "type": "VEC2",
      "bufferView": 2,
      "byteOffset": 45136
    },
    {
      "name": "Text001_1_1_indices",
      "componentType": 5123,
      "count": 5520,
      "min": [
        0
      ],
      "max": [
        1149
      ],
      "type": "SCALAR",
      "bufferView": 3,
      "byteOffset": 47072
    },
    {
      "name": "Box001_1_0_positions",
      "componentType": 5126,
      "count": 568,
      "min": [
        -27.393199920654297,
        0,
        -14.592599868774414
      ],
      "max": [
        -12.99489974975586,
        8.513500213623047,
        -4.345099925994873
      ],
      "type": "VEC3",
      "bufferView": 0,
      "byteOffset": 81504
    },
    {
      "name": "Box001_1_0_normals",
      "componentType": 5126,
      "count": 568,
      "min": [
        -1,
        -1,
        -0.9996811151504517
      ],
      "max": [
        1,
        1,
        0.9996811151504517
      ],
      "type": "VEC3",
      "bufferView": 1,
      "byteOffset": 81504
    },
    {
      "name": "Box001_1_0_texcoords",
      "componentType": 5126,
      "count": 568,
      "min": [
        0,
        0
      ],
      "max": [
        1,
        1
      ],
      "type": "VEC2",
      "bufferView": 2,
      "byteOffset": 54336
    },
    {
      "name": "Box001_1_0_indices",
      "componentType": 5123,
      "count": 2928,
      "min": [
        0
      ],
      "max": [
        567
      ],
      "type": "SCALAR",
      "bufferView": 3,
      "byteOffset": 58112
    }
  ],
  "asset": {
    "generator": "obj2gltf",
    "version": "2.0"
  },
  "buffers": [
    {
      "name": "bear",
      "byteLength": 299488,
      "uri": "data:application/octet-stream;base64,"
    }
  ],
  "bufferViews": [
    {
      "name": "bufferView_0",
      "buffer": 0,
      "byteLength": 88320,
      "byteOffset": 0,
      "byteStride": 12,
      "target": 34962
    },
    {
      "name": "bufferView_1",
      "buffer": 0,
      "byteLength": 88320,
      "byteOffset": 88320,
      "byteStride": 12,
      "target": 34962
    },
    {
      "name": "bufferView_2",
      "buffer": 0,
      "byteLength": 58880,
      "byteOffset": 176640,
      "byteStride": 8,
      "target": 34962
    },
    {
      "name": "bufferView_3",
      "buffer": 0,
      "byteLength": 63968,
      "byteOffset": 235520,
      "target": 34963
    }
  ],
  "materials": [
    {
      "name": "01___Default",
      "pbrMetallicRoughness": {
        "baseColorFactor": [
          0.5,
          0.5,
          0.5,
          1
        ],
        "metallicFactor": 0,
        "roughnessFactor": 1
      },
      "emissiveFactor": [
        0,
        0,
        0
      ],
      "alphaMode": "OPAQUE",
      "doubleSided": false
    },
    {
      "name": "02___Default",
      "pbrMetallicRoughness": {
        "baseColorFactor": [
          0.5,
          0.5,
          0.5,
          1
        ],
        "metallicFactor": 0,
        "roughnessFactor": 1
      },
      "emissiveFactor": [
        0,
        0,
        0
      ],
      "alphaMode": "OPAQUE",
      "doubleSided": false
    },
    {
      "name": "Material__49",
      "pbrMetallicRoughness": {
        "baseColorFactor": [
          0.5,
          0.5,
          0.5,
          1
        ],
        "metallicFactor": 0,
        "roughnessFactor": 1
      },
      "emissiveFactor": [
        0,
        0,
        0
      ],
      "alphaMode": "OPAQUE",
      "doubleSided": false
    },
    {
      "name": "Material__48",
      "pbrMetallicRoughness": {
        "baseColorFactor": [
          0.5,
          0.5,
          0.5,
          1
        ],
        "metallicFactor": 0,
        "roughnessFactor": 1
      },
      "emissiveFactor": [
        0,
        0,
        0
      ],
      "alphaMode": "OPAQUE",
      "doubleSided": false
    },
    {
      "name": "Material__105",
      "pbrMetallicRoughness": {
        "baseColorFactor": [
          0.5,
          0.5,
          0.5,
          1
        ],
        "metallicFactor": 0,
        "roughnessFactor": 1
      },
      "emissiveFactor": [
        0,
        0,
        0
      ],
      "alphaMode": "OPAQUE",
      "doubleSided": false
    }
  ],
  "meshes": [
    {
      "name": "Caixa001_1",
      "primitives": [
        {
          "attributes": {
            "POSITION": 0,
            "NORMAL": 1,
            "TEXCOORD_0": 2
          },
          "indices": 3,
          "material": 0,
          "mode": 4
        },
        {
          "attributes": {
            "POSITION": 4,
            "NORMAL": 5,
            "TEXCOORD_0": 6
          },
          "indices": 7,
          "material": 1,
          "mode": 4
        }
      ]
    },
    {
      "name": "Text001_1",
      "primitives": [
        {
          "attributes": {
            "POSITION": 8,
            "NORMAL": 9,
            "TEXCOORD_0": 10
          },
          "indices": 11,
          "material": 2,
          "mode": 4
        },
        {
          "attributes": {
            "POSITION": 12,
            "NORMAL": 13,
            "TEXCOORD_0": 14
          },
          "indices": 15,
          "material": 3,
          "mode": 4
        }
      ]
    },
    {
      "name": "Box001_1",
      "primitives": [
        {
          "attributes": {
            "POSITION": 16,
            "NORMAL": 17,
            "TEXCOORD_0": 18
          },
          "indices": 19,
          "material": 4,
          "mode": 4
        }
      ]
    }
  ],
  "nodes": [
    {
      "name": "Caixa001",
      "mesh": 0
    },
    {
      "name": "Text001",
      "mesh": 1
    },
    {
      "name": "Box001",
      "mesh": 2
    }
  ],
  "scene": 0,
  "scenes": [
    {
      "nodes": [
        0,
        1,
        2
      ]
    }
  ]
}
