{
  "accessors": [
    {
      "name": "polySurface73_1_0_positions",
      "componentType": 5126,
      "count": 566,
      "min": [
        -12.056731224060059,
        0.0837780013680458,
        -21.191490173339844
      ],
      "max": [
        12.222922325134277,
        21.36676788330078,
        29.172422409057617
      ],
      "type": "VEC3",
      "bufferView": 0,
      "byteOffset": 0
    },
    {
      "name": "polySurface73_1_0_normals",
      "componentType": 5126,
      "count": 566,
      "min": [
        -1,
        -1,
        -1
      ],
      "max": [
        1,
        1,
        1
      ],
      "type": "VEC3",
      "bufferView": 1,
      "byteOffset": 0
    },
    {
      "name": "polySurface73_1_0_texcoords",
      "componentType": 5126,
      "count": 566,
      "min": [
        0.014361999928951263,
        0.015393000096082687
      ],
      "max": [
        0.9790719747543335,
        0.9842209815979004
      ],
      "type": "VEC2",
      "bufferView": 2,
      "byteOffset": 0
    },
    {
      "name": "polySurface73_1_0_indices",
      "componentType": 5123,
      "count": 1002,
      "min": [
        0
      ],
      "max": [
        565
      ],
      "type": "SCALAR",
      "bufferView": 3,
      "byteOffset": 0
    }
  ],
  "asset": {
    "generator": "obj2gltf",
    "version": "2.0"
  },
  "buffers": [
    {
      "name": "farmhouse_obj",
      "byteLength": 1788092,
      "uri": "data:application/octet-stream;base64,"
    }
  ],
  "bufferViews": [
    {
      "name": "bufferView_0",
      "buffer": 0,
      "byteLength": 6792,
      "byteOffset": 0,
      "byteStride": 12,
      "target": 34962
    },
    {
      "name": "bufferView_1",
      "buffer": 0,
      "byteLength": 6792,
      "byteOffset": 6792,
      "byteStride": 12,
      "target": 34962
    },
    {
      "name": "bufferView_2",
      "buffer": 0,
      "byteLength": 4528,
      "byteOffset": 13584,
      "byteStride": 8,
      "target": 34962
    },
    {
      "name": "bufferView_3",
      "buffer": 0,
      "byteLength": 2004,
      "byteOffset": 18112,
      "target": 34963
    },
    {
      "buffer": 0,
      "byteOffset": 20116,
      "byteLength": 1767974
    }
  ],
  "images": [
    {
      "name": "Farmhouse Texture",
      "mimeType": "image/jpeg",
      "bufferView": 4
    }
  ],
  "materials": [
    {
      "name": "lambert13SG",
      "pbrMetallicRoughness": {
        "baseColorTexture": {
          "index": 0
        },
        "baseColorFactor": [
          1,
          1,
          1,
          1
        ],
        "metallicFactor": 0,
        "roughnessFactor": 1
      },
      "emissiveFactor": [
        0,
        0,
        0
      ],
      "alphaMode": "OPAQUE",
      "doubleSided": false
    }
  ],
  "meshes": [
    {
      "name": "polySurface73_1",
      "primitives": [
        {
          "attributes": {
            "POSITION": 0,
            "NORMAL": 1,
            "TEXCOORD_0": 2
          },
          "indices": 3,
          "material": 0,
          "mode": 4
        }
      ]
    }
  ],
  "nodes": [
    {
      "name": "polySurface73",
      "mesh": 0
    }
  ],
  "samplers": [
    {
      "magFilter": 9729,
      "minFilter": 9986,
      "wrapS": 10497,
      "wrapT": 10497
    }
  ],
  "scene": 0,
  "scenes": [
    {
      "nodes": [
        0
      ]
    }
  ],
  "textures": [
    {
      "name": "Farmhouse Texture",
      "sampler": 0,
      "source": 0
    }
  ]
}
