<?xml version="1.0" standalone="no"?>
<!DOCTYPE svg PUBLIC "-//W3C//DTD SVG 20010904//EN"
 "http://www.w3.org/TR/2001/REC-SVG-20010904/DTD/svg10.dtd">
<svg version="1.0" xmlns="http://www.w3.org/2000/svg"
 width="570.000000pt" height="570.000000pt" viewBox="0 0 570.000000 570.000000"
 preserveAspectRatio="xMidYMid meet">
<metadata>
Created by potrace 1.11, written by Peter Selinger 2001-2013
</metadata>
<g transform="translate(0.000000,570.000000) scale(0.100000,-0.100000)"
fill="#000000" stroke="none">
<path d="M2746 5399 c-21 -11 -100 -82 -177 -157 -76 -75 -143 -141 -149 -147
-6 -5 -51 -52 -100 -102 -49 -51 -91 -93 -95 -93 -3 0 -25 -21 -48 -47 -41
-46 -54 -59 -174 -175 -32 -31 -79 -78 -104 -105 -26 -26 -57 -58 -70 -69 -13
-12 -52 -50 -85 -85 -34 -35 -80 -81 -103 -102 -22 -21 -41 -41 -41 -45 0 -4
-14 -16 -30 -27 -16 -11 -30 -23 -30 -26 0 -4 -27 -33 -61 -65 -33 -33 -90
-90 -127 -128 -37 -38 -75 -76 -85 -85 -10 -9 -46 -44 -80 -79 -34 -35 -80
-80 -101 -100 -21 -20 -57 -57 -80 -80 -23 -24 -229 -231 -458 -460 -463 -462
-466 -465 -455 -571 11 -107 99 -185 207 -186 36 0 68 7 92 20 21 11 326 307
678 658 352 350 645 637 650 637 6 0 10 4 10 9 0 8 103 115 159 166 6 6 47 47
91 93 44 45 85 82 90 82 6 0 10 4 10 8 0 9 112 125 191 198 24 23 69 68 100
100 30 33 85 87 122 122 37 34 67 66 67 70 0 4 21 25 46 47 52 45 106 98 145
141 14 16 40 42 58 57 l32 28 240 -238 c316 -312 559 -557 568 -572 5 -7 12
-13 16 -14 13 -3 292 -286 287 -292 -3 -3 0 -5 6 -5 6 0 296 -284 644 -631
348 -348 650 -643 670 -656 58 -39 130 -41 198 -6 75 38 112 93 118 172 3 48
0 69 -19 108 -13 26 -28 51 -32 54 -25 18 -2047 2044 -2047 2051 0 4 -4 8 -9
8 -8 0 -162 153 -295 293 -25 26 -50 47 -55 47 -5 0 -11 4 -13 10 -8 24 -145
152 -182 170 -56 26 -138 26 -190 -1z"/>
<path d="M3498 5212 c-27 -2 -48 -8 -48 -13 0 -9 585 -596 668 -670 64 -57 62
-67 62 326 l0 355 -82 1 c-46 0 -189 1 -318 2 -129 1 -256 1 -282 -1z"/>
<path d="M2832 4561 c-13 -8 -1917 -1907 -2047 -2042 l-63 -65 -2 -415 c-1
-228 -1 -421 -1 -429 0 -15 0 -215 0 -235 -3 -268 6 -642 17 -693 31 -148 142
-265 295 -313 56 -18 100 -19 614 -19 l553 0 4 25 c3 14 6 357 6 763 1 405 4
755 8 777 18 114 114 234 232 292 l76 38 295 0 c163 0 310 -3 328 -7 106 -23
227 -117 276 -214 48 -97 49 -106 50 -903 2 -523 5 -753 13 -761 7 -7 180 -10
575 -8 564 3 564 3 622 26 113 46 212 149 252 262 18 53 19 92 22 935 l4 879
-1058 1058 c-766 766 -1062 1055 -1071 1049z"/>
<path d="M2550 2024 c-46 -20 -98 -71 -116 -113 -12 -28 -14 -159 -14 -797 l0
-764 420 0 420 0 0 764 c0 826 2 799 -54 859 -14 15 -45 37 -68 47 -39 18 -67
20 -298 19 -205 0 -262 -3 -290 -15z"/>
</g>
</svg>
